#File written by LIBRIZOMUV. Compilation :Aug 20 2018,18:45:16
mtllib di:mtl
#begin vertices
v -0.871205 0.047336 1.011111
v 1.127594 0.047336 1.011111
v -0.871205 3.484829 1.011111
v 1.127594 3.484829 1.011111
v -0.871205 3.484829 -1.011111
v 1.127594 3.484829 -1.011111
v -0.871205 0.047336 -1.011111
v 1.127594 0.047336 -1.011111
v -0.871205 1.96038 1.011111
v 1.127594 1.96038 1.011111
v 1.127594 1.96038 -1.011111
v -0.871205 1.96038 -1.011111
v -0.871205 3.347392 -1.011111
v 1.127594 3.347392 -1.011111
v 1.127594 3.347391 1.011111
v -0.871205 3.347391 1.011111
v -0.842495 1.991165 0.953265
v 1.098884 1.991165 0.953265
v 1.098884 3.316606 0.953265
v -0.842495 3.316606 0.953265
v -0.842495 3.316607 -0.953265
v 1.098884 3.316607 -0.953265
v 1.098884 1.991165 -0.953265
v -0.842495 1.991165 -0.953265
v -0.21131 3.484829 0.169153
v 0.467699 3.484829 0.169153
v 0.467699 3.484829 -0.169153
v -0.21131 3.484829 -0.169153
v -0.21131 3.875273 0.169153
v 0.467699 3.875273 0.169153
v 0.467699 3.875273 -0.169153
v -0.21131 3.875273 -0.169153
v -1.072292 -0.011917 -0.532781
v -1.672292 -0.011917 -0.532781
v -1.072292 2.339152 -0.532781
v -1.672292 2.339152 -0.532781
v -1.072292 2.339152 -0.166855
v -1.672292 2.339152 -0.166855
v -1.072292 -0.011917 -0.166855
v -1.672292 -0.011917 -0.166855
v -1.072292 1.434896 -0.532781
v -1.672292 1.434896 -0.532781
v -1.672292 1.434896 -0.166855
v -1.072292 1.434896 -0.166855
v -1.072292 2.339152 -0.065529
v -1.672292 2.339152 -0.065529
v -1.672292 1.519669 -0.065529
v -1.072292 1.519669 -0.065529
v -1.072292 2.339152 -0.251893
v -1.672292 2.339152 -0.251893
v -1.672292 1.434896 -0.251893
v -1.672292 -0.011917 -0.251893
v -1.072292 -0.011917 -0.251893
v -1.072292 1.434896 -0.251893
#end vertices

#begin 110 textures vertices 
vt 0.7305982 0.3694352 0
vt 0.4312816 0.3694352 0
vt 0.7574829 0.335171 0
vt 0.4581664 0.335171 0
vt 0.7574831 0.03234682 0
vt 0.4581665 0.03234673 0
vt 0.7305982 0.6722594 0
vt 0.4312816 0.6722594 0
vt 0.01006944 0.2524272 0
vt 0.01006944 0.5 0
vt 0.01006944 0.750474 0
vt 0.01006943 0.9980469 0
vt 0.7574831 0.01176587 0
vt 0.4581664 0.01176578 0
vt 0.4375852 0.3351709 0
vt 0.7574829 0.3557521 0
vt 0.4262347 0.2482362 0
vt 0.4262347 0.4990209 0
vt 0.255016 0.4990209 0
vt 0.255016 0.2482362 0
vt 0.2550159 0.9960886 0
vt 0.2550159 0.7453038 0
vt 0.4262347 0.7453038 0
vt 0.4262347 0.9960886 0
vt 0.6586649 0.2090893 0
vt 0.5569845 0.2090892 0
vt 0.5569845 0.1584285 0
vt 0.6586649 0.1584285 0
vt 0.4897499 0.8362785 0
vt 0.4897499 0.7345981 0
vt 0.5404107 0.7345981 0
vt 0.5404107 0.8362785 0
vt 0.9361684 0.4088183 0
vt 0.8463196 0.4088183 0
vt 0.9361684 0.0567498 0
vt 0.8463196 0.0567498 0
vt 0.9361684 0.001953125 0
vt 0.8463196 0.001953125 0
vt 0.8507405 0.5025377 0
vt 0.8507405 0.4126888 0
vt 0.9361684 0.1921606 0
vt 0.8463196 0.1921606 0
vt 0.7915228 0.1921606 0
vt 0.9909652 0.1921606 0
vt 0.8422622 0.771846 0
vt 0.7524132 0.771846 0
vt 0.7524132 0.64913 0
vt 0.8422622 0.64913 0
vt 0.9361684 0.01468733 0
vt 0.8463196 0.01468733 0
vt 0.8042571 0.1921606 0
vt 0.8634747 0.4126888 0
vt 0.8634747 0.5025377 0
vt 0.978231 0.1921606 0
vt 0.2470206 0.2524272 0
vt 0.001953125 0.2559832 0
vt 0.004855528 0.2452623 0
vt 0.001953125 0.496444 0
vt 0.004855528 0.5071649 0
vt 0.4624655 0.3655646 0
vt 0.4312816 0.3265085 0
vt 0.7531837 0.3655647 0
vt 0.7843677 0.3265087 0
vt 0.001953125 0.9944908 0
vt 0.004855528 0.009117977 0
vt 0.4262347 0.001953125 0
vt 0.2550159 0.001953125 0
vt 0.7843677 0.04100917 0
vt 0.7531837 0.001953221 0
vt 0.4624657 0.001953125 0
vt 0.4312819 0.04100905 0
vt 0.001953125 0.7540301 0
vt 0.004855528 0.7433092 0
vt 0.2470206 0.9980469 0
vt 0.2470206 0.001953125 0
vt 0.2470206 0.750474 0
vt 0.2470206 0.5 0
vt 0.01006944 0.001953125 0
vt 0.7780641 0.03234683 0
vt 0.4375855 0.03234672 0
vt 0.4581663 0.355752 0
vt 0.778064 0.335171 0
vt 0.4312816 0.7345981 0
vt 0.4897499 0.6761298 0
vt 0.4312816 0.8362785 0
vt 0.4897499 0.8947467 0
vt 0.5404107 0.6761298 0
vt 0.5988789 0.7345981 0
vt 0.5988789 0.8362785 0
vt 0.5404107 0.8947467 0
vt 0.8422622 0.7870194 0
vt 0.8574355 0.771846 0
vt 0.9909652 0.0567498 0
vt 0.978231 0.0567498 0
vt 0.8042571 0.0567498 0
vt 0.7915228 0.0567498 0
vt 0.7372398 0.771846 0
vt 0.7524132 0.7870194 0
vt 0.978231 0.4088183 0
vt 0.8422622 0.4126888 0
vt 0.9909652 0.4088183 0
vt 0.7915228 0.4088183 0
vt 0.7524132 0.4126888 0
vt 0.8042571 0.4088183 0
vt 0.7524132 0.6293465 0
vt 0.7372398 0.6364353 0
vt 0.8422622 0.6293465 0
vt 0.8574355 0.6364353 0
vt 0.9055372 0.5025377 0
vt 0.9055372 0.4126888 0
#end 110 textures vertices 

#begin 180 normals 
vn 0 0 1
vn 0 0 1
vn 0 0 1
vn 0 0 1
vn 0 1 0
vn 0 1 0
vn 0 1 0
vn 0 1 0
vn 0 0 -1
vn 0 0 -1
vn 0 0 -1
vn 0 0 -1
vn 0 -1 0
vn 0 -1 0
vn 0 -1 0
vn 0 -1 0
vn 1 0 0
vn 1 0 0
vn 1 0 0
vn 1 0 0
vn -1 0 0
vn -1 0 0
vn -1 0 0
vn -1 0 0
vn 0 0 1
vn 0 0 1
vn 0 0 1
vn 0 0 1
vn 1 0 0
vn 1 0 0
vn 1 0 0
vn 1 0 0
vn 0 0 -1
vn 0 0 -1
vn 0 0 -1
vn 0 0 -1
vn -1 0 0
vn -1 0 0
vn -1 0 0
vn -1 0 0
vn 0 0 -1
vn 0 0 -1
vn 0 0 -1
vn 0 0 -1
vn 1 0 0
vn 1 0 0
vn 1 0 0
vn 1 0 0
vn 0 0 1
vn 0 0 1
vn 0 0 1
vn 0 0 1
vn -1 0 0
vn -1 0 0
vn -1 0 0
vn -1 0 0
vn 0 0.882771 0.469803
vn 0 0.882771 0.469803
vn 0 0.882771 0.469803
vn 0 0.882771 0.469803
vn 0 -0.882772 0.469802
vn 0 -0.882772 0.469802
vn 0 -0.882772 0.469802
vn 0 -0.882772 0.469802
vn 0 -0.882772 -0.469802
vn 0 -0.882772 -0.469802
vn 0 -0.882772 -0.469802
vn 0 -0.882772 -0.469802
vn 0 0.882771 -0.469803
vn 0 0.882771 -0.469803
vn 0 0.882772 -0.469803
vn 0 0.882772 -0.469803
vn 0.731324 0.68203 -0
vn 0.731324 0.68203 -0
vn 0.731324 0.68203 -0
vn 0.731324 0.68203 -0
vn 0.731324 -0.68203 -0
vn 0.731324 -0.68203 -0
vn 0.731324 -0.68203 -0
vn 0.731324 -0.68203 -0
vn -0.731324 0.68203 -0
vn -0.731324 0.68203 -0
vn -0.731324 0.68203 -0
vn -0.731324 0.68203 -0
vn -0.731324 -0.68203 -0
vn -0.731324 -0.68203 -0
vn -0.731324 -0.68203 -0
vn -0.731324 -0.68203 -0
vn 0 1 0
vn 0 1 0
vn 0 1 0
vn 0 1 0
vn 0 1 0
vn 0 1 0
vn 0 1 0
vn 0 1 0
vn 0 1 -0
vn 0 1 -0
vn 0 1 -0
vn 0 1 -0
vn 0 1 0
vn 0 1 0
vn 0 1 0
vn 0 1 0
vn 0 0 1
vn 0 0 1
vn 0 0 1
vn 0 0 1
vn 1 0 0
vn 1 0 0
vn 1 0 0
vn 1 0 0
vn 0 0 -1
vn 0 0 -1
vn 0 0 -1
vn 0 0 -1
vn -1 0 0
vn -1 0 0
vn -1 0 0
vn -1 0 0
vn 0 0 -1
vn 0 0 -1
vn 0 0 -1
vn 0 0 -1
vn 0 1 -0
vn 0 1 -0
vn 0 1 -0
vn 0 1 -0
vn -0 0 1
vn -0 0 1
vn -0 0 1
vn -0 0 1
vn 0 -1 0
vn 0 -1 0
vn 0 -1 0
vn 0 -1 0
vn -1 0 -0
vn -1 0 -0
vn -1 0 -0
vn -1 0 -0
vn 1 0 0
vn 1 0 0
vn 1 0 0
vn 1 0 0
vn 0 0 -1
vn 0 0 -1
vn -1 0 -0
vn -1 0 -0
vn -0 0 1
vn -0 0 1
vn -0 0 1
vn -0 0 1
vn 1 0 0
vn 1 0 0
vn 0 1 -0
vn 0 1 -0
vn 0 1 -0
vn 0 1 -0
vn -1 0 -0
vn -1 0 -0
vn -1 0 -0
vn -1 0 -0
vn -0 -0.766972 0.641681
vn -0 -0.766972 0.641681
vn -0 -0.766972 0.641681
vn -0 -0.766972 0.641681
vn 1 0 0
vn 1 0 0
vn 1 0 0
vn 1 0 0
vn 0 1 -0
vn 0 1 -0
vn -1 0 -0
vn -1 0 -0
vn -1 0 -0
vn 0 -1 0
vn 0 -1 0
vn 1 0 0
vn 1 0 0
vn 1 0 0
#end 180 normals 

#begin 50 faces
usemtl initialShadingGroup
g pCube1
s off
f 17/17/1 18/18/2 19/19/3 20/20/4 
f 29/29/5 30/30/6 31/31/7 32/32/8 
f 21/21/9 22/22/10 23/23/11 24/24/12 
f 7/7/13 8/8/14 2/2/15 1/1/16 
f 18/18/17 23/23/18 22/22/19 19/19/20 
f 24/66/21 17/17/22 20/20/23 21/67/24 
f 1/55/25 2/77/26 10/10/27 9/9/28 
f 2/77/29 8/76/30 11/11/31 10/10/32 
f 12/12/33 11/11/34 8/76/35 7/74/36 
f 7/75/37 1/55/38 9/9/39 12/78/40 
f 5/5/41 6/6/42 14/14/43 13/13/44 
f 15/15/45 14/80/46 6/6/47 4/4/48 
f 16/16/49 15/81/50 4/4/51 3/3/52 
f 13/79/53 16/82/54 3/3/55 5/5/56 
f 9/9/57 10/10/58 18/58/59 17/56/60 
f 15/81/61 16/16/62 20/62/63 19/60/64 
f 13/13/65 14/14/66 22/70/67 21/69/68 
f 11/11/69 12/12/70 24/64/71 23/72/72 
f 10/10/73 11/11/74 23/73/75 18/59/76 
f 14/80/77 15/15/78 19/61/79 22/71/80 
f 12/78/81 9/9/82 17/57/83 24/65/84 
f 16/82/85 13/79/86 21/68/87 20/63/88 
f 3/3/89 4/4/90 26/26/91 25/25/92 
f 4/4/93 6/6/94 27/27/95 26/26/96 
f 6/6/97 5/5/98 28/28/99 27/27/100 
f 5/5/101 3/3/102 25/25/103 28/28/104 
f 25/85/105 26/83/106 30/30/107 29/29/108 
f 26/84/109 27/87/110 31/31/111 30/30/112 
f 27/88/113 28/89/114 32/32/115 31/31/116 
f 28/90/117 25/86/118 29/29/119 32/32/120 
usemtl initialShadingGroup
g pCube2
s 1
f 41/41/121 42/42/122 36/36/123 35/35/124 
s 2
f 49/49/125 50/50/126 38/38/127 37/37/128 
s off
f 45/45/129 46/46/130 47/47/131 48/48/132 
s 3
f 39/39/133 40/40/134 52/52/135 53/53/136 
s 4
f 50/95/137 51/51/138 43/43/139 38/96/140 
s 5
f 44/44/141 54/54/142 49/94/143 37/93/144 
s 1
f 33/33/145 34/34/146 42/42/122 41/41/121 
s 4
f 51/51/138 52/104/147 40/102/148 43/43/139 
s off
f 44/107/149 43/105/150 40/103/151 39/100/152 
s 5
f 39/101/153 53/99/154 54/54/142 44/44/141 
s off
f 37/91/155 38/98/156 46/46/157 45/45/158 
f 38/97/159 43/106/160 47/47/161 46/46/162 
f 43/105/163 44/107/164 48/48/165 47/47/166 
f 44/108/167 37/92/168 45/45/169 48/48/170 
s 2
f 35/35/171 36/36/172 50/50/126 49/49/125 
s 4
f 42/42/173 51/51/138 50/95/137 36/36/174 
f 34/34/175 52/104/147 51/51/138 42/42/173 
s 3
f 53/53/136 52/52/135 34/110/176 33/109/177 
s 5
f 54/54/142 53/99/154 33/33/178 41/41/179 
f 49/94/143 54/54/142 41/41/179 35/35/180 
#end 50 faces

#begin properties
#ZOMPROPERTIES_02 table {Mesh table {IslandsUVW table {0 table {TopoStable table {Selected bool false Visible bool false } } 1 table {TopoStable table {Selected bool false Visible bool false } } 2 table {TopoStable table {Selected bool false Visible bool false } } 3 table {TopoStable table {Selected bool false Visible bool false } } 4 table {TopoStable table {Selected bool false Visible bool false } } 5 table {TopoStable table {Selected bool false Visible bool false } } 6 table {TopoStable table {Selected bool false Visible bool false } } 7 table {TopoStable table {Selected bool false Visible bool false } } } SymPlane table {Point vector3d 0 0 0  Normal vector3d 1 0 0  Threshold double 0.01 Enabled bool false EdgeID int -1 SymEdgeID int -1 UPos double 0.5 LocalMode bool false } RootGroup CSubMeshGroup {Children table {Tile_0_0 CSubMeshGroup {Children table {} IslandIDs ints { 0 1 2 3 4 5 6 7 } BBoxUV box3d 0 0 0 0 0 0 BBox3D box3d 0 0 0 0 0 0 AreaUV double 0 Area3D double 0 IsRoot bool false TopoStable table {Selected bool false Box box3d 0 1 0 1 0 1 U int 0 V int 0 NU int 0 NV int 0 Tiling vector3d 1 1 1  TileRatioMode string "1:1" } IsTile bool true } } IslandIDs ints { } BBoxUV box3d 0 0 0 0 0 0 BBox3D box3d 0 0 0 0 0 0 AreaUV double 0 Area3D double 0 IsRoot bool true TopoStable table {Selected bool false Box box3d 0 1 0 1 0 1 U int 0 V int 0 NU int 1 NV int 1 Tiling vector3d 1 1 1  TileRatioMode string "1:1" Pack table {Rotate table {Mode int 2 Min double 0 Max double 180 Step double 0 } SpacingSize double 0.00390625 MarginSize double 0.001953125 Resolution int 200 Scaling table {Mode int 0 } LayoutScalingMode int 2 MaxMutations int 1 } } IsTile bool false } Maps table {Density table {PrimType string "Polygon" Size int 1 DefaultValue double 1 ScaleType string "Log" MinValue double 0.1 MaxValue double 4 Data doubles { r 50 1 } } Pin table {PrimType string "Vertex" Size int 1 DefaultValue double 0 ScaleType string "Normalized" MinValue double 0 MaxValue double 1 Data doubles { r 110 0 } } Protect table {PrimType string "Vertex" Size int 1 DefaultValue double 0 ScaleType string "Normalized" MinValue double -1 MaxValue double 1 Data doubles { r 110 0 } } } } }
#end properties

#begin 0 fatal error vertex (that RizomUV cannot handle)
#end 0 fatal error vertex (that RizomUV cannot handle)

#begin 0 error vertex
#end 0 error vertex
